<?xml version="1.0" encoding="iso-8859-1"?>
<!-- Generator: Adobe Illustrator 19.0.0, SVG Export Plug-In . SVG Version: 6.00 Build 0)  -->
<svg xmlns="http://www.w3.org/2000/svg" xmlns:xlink="http://www.w3.org/1999/xlink" version="1.1" id="Capa_1" x="0px" y="0px" viewBox="0 0 480 480" style="enable-background:new 0 0 480 480;" xml:space="preserve" width="512px" height="512px">
<g>
	<g>
		<path d="M463.8,232C459.656,114.84,365.16,20.344,248,16.2V0h-16v16.2C114.84,20.344,20.344,114.84,16.2,232H0v16h16.2    c4.144,117.16,98.64,211.656,215.8,215.8V480h16v-16.2c117.16-4.144,211.656-98.64,215.8-215.8H480v-16H463.8z M232,32.2v24    C136.896,60.296,60.296,136.896,56.2,232h-24C36.328,123.664,123.664,36.328,232,32.2z M232,447.8    C123.664,443.672,36.328,356.336,32.2,248h24c4.096,95.104,80.696,171.704,175.8,175.8V447.8z M232,384v23.592    C145.76,403.504,76.496,334.24,72.408,248H96v-16H72.408C76.496,145.76,145.76,76.496,232,72.408V96h16V72.408    C334.24,76.496,403.504,145.76,407.592,232H384v16h23.592C403.504,334.24,334.24,403.504,248,407.592V384H232z M248,447.8v-24    c95.104-4.096,171.704-80.696,175.8-175.8h24C443.672,356.336,356.336,443.672,248,447.8z M423.8,232    C419.704,136.896,343.104,60.296,248,56.2v-24c108.336,4.128,195.672,91.464,199.8,199.8H423.8z" fill="#933EC5"/>
	</g>
</g>
<g>
	<g>
		<path d="M312.096,142.688l-12.672,76.04l-20.776-31.168c-1.504-2.248-4.352-3.784-6.744-3.56    c-2.704,0.032-5.208,1.424-6.664,3.704l-52.44,82.408l-33.84-13.536c-3.184-1.272-6.824-0.384-9.048,2.224l-48,56l12.152,10.408    l44.28-51.656l34.68,13.872c3.584,1.424,7.664,0.12,9.72-3.136l49.408-77.64l25.184,37.784c1.824,2.736,5.128,4.096,8.336,3.384    c3.208-0.688,5.672-3.264,6.208-6.504l16-96L312.096,142.688z" fill="#933EC5"/>
	</g>
</g>
<g>
	<g>
		<rect x="128" y="336" width="224" height="16" fill="#933EC5"/>
	</g>
</g>
<g>
</g>
<g>
</g>
<g>
</g>
<g>
</g>
<g>
</g>
<g>
</g>
<g>
</g>
<g>
</g>
<g>
</g>
<g>
</g>
<g>
</g>
<g>
</g>
<g>
</g>
<g>
</g>
<g>
</g>
</svg>
