<?xml version="1.0" encoding="iso-8859-1"?>
<!-- Generator: Adobe Illustrator 17.1.0, SVG Export Plug-In . SVG Version: 6.00 Build 0)  -->
<!DOCTYPE svg PUBLIC "-//W3C//DTD SVG 1.1//EN" "http://www.w3.org/Graphics/SVG/1.1/DTD/svg11.dtd">
<svg xmlns="http://www.w3.org/2000/svg" xmlns:xlink="http://www.w3.org/1999/xlink" version="1.1" id="Capa_1" x="0px" y="0px" viewBox="0 0 211.077 211.077" style="enable-background:new 0 0 211.077 211.077;" xml:space="preserve" width="512px" height="512px">
<path d="M105.47,211.077c-37.51,0-68.027-30.517-68.027-68.027v-0.987h-1.488c-11.568,0-20.979-9.411-20.979-20.979v-9.606  c0-11.567,9.411-20.979,20.979-20.979h1.488V59.58c0-11.853,5.486-23.12,14.753-30.465c-0.333-1.606-0.506-3.262-0.506-4.943  c0-4.318,2.3-8.755,6.153-11.867c0.039-0.031,0.078-0.062,0.118-0.091l2.334-1.666c0.083-0.059,0.169-0.112,0.258-0.161  c0.363-0.197,0.774-0.445,1.245-0.728c2.199-1.319,5.522-3.313,11.019-4.99c7.604-2.49,15.59-3.942,24.416-4.438  c33.89-1.902,64.06,8.079,73.374,24.27c0.003,0.007,0.007,0.013,0.01,0.019c1.203,1.946,2,3.408,2.775,5.075  c7.619,16.387,1.423,33.586,0.107,36.861v24.042h1.624c11.568,0,20.979,9.411,20.979,20.979v9.606  c0,11.568-9.411,20.979-20.979,20.979h-1.624v0.987C173.498,180.56,142.981,211.077,105.47,211.077z M42.443,139.562v3.487  c0,34.753,28.274,63.027,63.027,63.027c34.754,0,63.028-28.274,63.028-63.027v-21.19h-4.429c-0.668,0-1.308-0.268-1.778-0.742  c-0.47-0.476-0.729-1.118-0.722-1.786c0.003-0.29,0.303-29.082-1.925-37.997c-2.014-8.056-7.763-11.271-8.006-11.404  c-0.596-0.325-1.041-0.883-1.22-1.537s-0.092-1.357,0.254-1.941c0.033-0.055,3.431-5.875,3.581-11.457  c0.023-0.87-3.563-2.989-8.306-4.339c-5.414-1.157-9.579-1.098-9.681-1.095c-0.019,0.001-0.042,0.001-0.061,0.001h-52  c-7.519,0-14.017-1.292-19.313-3.841c-0.886-0.427-1.739-0.908-2.555-1.44c-2.334,2.7-5.657,7.304-5.648,10.775  c0.014,5.524,3.523,11.303,3.559,11.36c0.361,0.589,0.464,1.302,0.283,1.968s-0.63,1.229-1.24,1.553  c-0.231,0.126-5.98,3.342-7.994,11.397c-2.229,8.915-1.929,37.707-1.925,37.997c0.007,0.668-0.252,1.311-0.722,1.786  c-0.47,0.475-1.11,0.742-1.778,0.742h-4.429V139.562z M173.634,137.062h1.488c8.811,0,15.979-7.168,15.979-15.979v-9.606  c0-8.811-7.168-15.979-15.979-15.979h-1.488V137.062z M35.955,95.498c-8.811,0-15.979,7.168-15.979,15.979v9.606  c0,8.812,7.168,15.979,15.979,15.979h1.488V95.498H35.955z M166.585,116.859h1.913V66.594c-2.173-4.739-5.537-8.16-9.288-10.631  c-0.302,4.367-1.991,8.548-3.145,10.954c2.525,1.973,6.663,6.138,8.429,13.204C166.493,88.118,166.608,109.461,166.585,116.859z   M42.443,116.859h1.913c-0.023-7.398,0.092-28.741,2.091-36.738c1.761-7.043,5.876-11.204,8.404-13.185  c-1.272-2.576-3.15-7.171-3.162-11.869c-0.013-5.307,4.219-11.004,6.778-13.963c-1.923-1.964-3.501-4.273-4.648-6.826  C46.643,40.669,42.443,49.9,42.443,59.58V116.859z M136.651,44.477c3.389,0,23.563,0.638,33.743,15.312  c0.355-1.348,0.71-2.914,1.002-4.646c-2.933-2.857-13.529-12.211-29.297-15.209c-11.023-2.095-24.042-1.284-36.633-0.499  c-9.361,0.584-19.04,1.188-27.616,0.536c-8.314-0.632-14.077-2.802-18.02-5.228c1.809,2.759,4.323,5.017,7.344,6.452  c4.59,2.181,10.317,3.287,17.021,3.287h52C136.259,44.48,136.415,44.477,136.651,44.477z M125.357,33.6  c6.125,0,12.095,0.361,17.675,1.422c13.856,2.635,23.881,9.605,29.015,13.95c0.089-2.201,0.025-4.528-0.271-6.915  c-6.971-6.976-19.331-11.842-35.824-14.089c-8.735-1.19-18.695,0.164-29.239,1.599c-10.625,1.445-21.612,2.939-31.5,1.64  c-10.966-1.442-15.992-5.392-18.282-8.933c-0.158,0.638-0.241,1.275-0.241,1.898c0,0.235,0.004,0.47,0.013,0.703  c0.811,1.57,5.428,8.887,21.526,10.109c8.231,0.627,17.312,0.059,26.926-0.54C111.87,34.025,118.705,33.6,125.357,33.6z   M128.72,22.52c2.712,0,5.358,0.146,7.906,0.492c13.973,1.905,25.27,5.678,33.214,11.042c-0.293-0.786-0.62-1.57-0.983-2.352  c-0.705-1.517-1.44-2.857-2.538-4.627c-0.019-0.031-0.039-0.064-0.058-0.099c-8.288-14.376-37.194-23.521-68.75-21.754  c-8.399,0.472-15.98,1.849-23.176,4.209c-0.029,0.01-0.059,0.02-0.089,0.027c-4.892,1.496-7.891,3.295-9.876,4.486  c-0.481,0.289-0.907,0.544-1.29,0.756l-2.152,1.536c-0.292,0.239-0.573,0.49-0.84,0.75c0.315,1.971,2.401,7.501,15.775,9.261  c9.225,1.216,19.875-0.236,30.173-1.637C113.631,23.579,121.414,22.52,128.72,22.52z M84.572,167.35  c-9.83,0-16.605-5.402-16.929-5.665c-1.072-0.871-1.234-2.445-0.363-3.518c0.871-1.071,2.446-1.232,3.517-0.363  c0.068,0.055,7.546,5.941,17.494,4.227c7.068-1.217,10.097-3.69,13.303-6.309c3.649-2.98,7.785-6.358,17.463-7.704  c14.644-2.032,22.343,6.601,24.906,10.27l1.116-0.721c1.16-0.753,2.707-0.416,3.457,0.743c0.749,1.16,0.416,2.707-0.744,3.456  l-6,3.875c-1.161,0.75-2.708,0.415-3.457-0.743c-0.749-1.16-0.416-2.707,0.744-3.456l0.707-0.457  c-1.942-2.824-7.991-9.692-20.041-8.014c-8.29,1.152-11.544,3.81-14.989,6.623c-3.4,2.777-7.253,5.924-15.617,7.364  C87.557,167.23,86.031,167.35,84.572,167.35z M131.833,125.645c-6.596,0-12.583-3.904-15.253-9.947  c-0.518-1.172-0.066-2.546,1.046-3.182l24.47-13.983c1.109-0.635,2.521-0.328,3.269,0.71c2.058,2.858,3.145,6.222,3.145,9.726  C148.511,118.164,141.029,125.645,131.833,125.645z M122.252,115.633c2.157,3.101,5.721,5.013,9.581,5.013  c6.439,0,11.678-5.238,11.678-11.677c0-1.698-0.367-3.351-1.072-4.872l-8.872,5.07c0.472,0.454,0.766,1.094,0.766,1.801v0.25  c0,1.381-1.119,2.5-2.5,2.5c-1.261,0-2.303-0.933-2.475-2.146L122.252,115.633z M81.272,125.645  c-9.196,0-16.677-7.481-16.677-16.678c0-3.503,1.087-6.866,3.145-9.725c0.748-1.038,2.159-1.345,3.269-0.71l24.47,13.983  c1.112,0.636,1.564,2.01,1.046,3.182C93.855,121.741,87.868,125.645,81.272,125.645z M70.666,104.097  c-0.706,1.521-1.072,3.173-1.072,4.871c0,6.439,5.238,11.678,11.677,11.678c3.861,0,7.424-1.912,9.582-5.013l-7.106-4.062  c-0.172,1.214-1.214,2.146-2.475,2.146c-1.381,0-2.5-1.119-2.5-2.5v-0.25c0-0.708,0.294-1.347,0.767-1.802L70.666,104.097z   M117.58,108.449c-0.764,0-1.519-0.349-2.009-1.01c-0.823-1.108-0.592-2.674,0.517-3.497l23.108-17.158  c1.109-0.824,2.675-0.592,3.498,0.517s0.592,2.674-0.517,3.497l-23.108,17.158C118.62,108.289,118.098,108.449,117.58,108.449z   M95.526,108.449c-0.518,0-1.041-0.16-1.488-0.493L70.93,90.798c-1.109-0.823-1.34-2.389-0.517-3.497  c0.824-1.108,2.39-1.341,3.498-0.517l23.108,17.158c1.109,0.823,1.34,2.389,0.517,3.497  C97.044,108.101,96.29,108.449,95.526,108.449z" fill="#9217BB"/>
<g>
</g>
<g>
</g>
<g>
</g>
<g>
</g>
<g>
</g>
<g>
</g>
<g>
</g>
<g>
</g>
<g>
</g>
<g>
</g>
<g>
</g>
<g>
</g>
<g>
</g>
<g>
</g>
<g>
</g>
</svg>
