<?xml version="1.0" encoding="iso-8859-1"?>
<!-- Generator: Adobe Illustrator 19.0.0, SVG Export Plug-In . SVG Version: 6.00 Build 0)  -->
<svg xmlns="http://www.w3.org/2000/svg" xmlns:xlink="http://www.w3.org/1999/xlink" version="1.1" id="Capa_1" x="0px" y="0px" viewBox="0 0 512 512" style="enable-background:new 0 0 512 512;" xml:space="preserve" width="512px" height="512px">
<g>
	<g>
		<path d="M459.5,422h-35.75c0-24.813-23.551-45-52.5-45h-54c-28.949,0-52.5,20.187-52.5,45h-17.5c0-24.813-23.551-45-52.5-45h-54    c-28.949,0-52.5,20.187-52.5,45H52.5C23.551,422,0,442.187,0,467v37.5c0,4.142,3.358,7.5,7.5,7.5s7.5-3.358,7.5-7.5V467    c0-16.542,16.822-30,37.5-30h54c20.678,0,37.5,13.458,37.5,30v37.5c0,4.142,3.358,7.5,7.5,7.5c4.142,0,7.5-3.358,7.5-7.5V467    c0-24.813-23.551-45-52.5-45h-3.25c0-16.542,16.822-30,37.5-30h54c20.678,0,37.5,13.458,37.5,30H229    c-28.949,0-52.5,20.187-52.5,45v37.5c0,4.142,3.358,7.5,7.5,7.5c4.142,0,7.5-3.358,7.5-7.5V467c0-16.542,16.822-30,37.5-30h54    c20.678,0,37.5,13.458,37.5,30v37.5c0,4.142,3.358,7.5,7.5,7.5c4.142,0,7.5-3.358,7.5-7.5V467c0-24.813-23.551-45-52.5-45h-3.25    c0-16.542,16.822-30,37.5-30h54c20.678,0,37.5,13.458,37.5,30h-3.25c-28.949,0-52.5,20.187-52.5,45v37.5    c0,4.142,3.358,7.5,7.5,7.5c4.142,0,7.5-3.358,7.5-7.5V467c0-16.542,16.822-30,37.5-30h54c20.678,0,37.5,13.458,37.5,30v37.5    c0,4.142,3.358,7.5,7.5,7.5c4.142,0,7.5-3.358,7.5-7.5V467C512,442.187,488.449,422,459.5,422z" fill="#933EC5"/>
	</g>
</g>
<g>
	<g>
		<path d="M504.5,0H7.5C3.358,0,0,3.358,0,7.5v347c0,4.142,3.358,7.5,7.5,7.5c13.521,0,20.806-4.857,26.66-8.76    c5.23-3.486,9.361-6.24,18.34-6.24s13.11,2.754,18.34,6.24c5.854,3.903,13.139,8.76,26.66,8.76c4.142,0,7.5-3.358,7.5-7.5V332h302    v22.5c0,4.142,3.358,7.5,7.5,7.5c13.521,0,20.806-4.857,26.66-8.76c5.23-3.486,9.361-6.24,18.34-6.24s13.11,2.754,18.34,6.24    c5.854,3.903,13.139,8.76,26.66,8.76c4.142,0,7.5-3.358,7.5-7.5V7.5C512,3.358,508.642,0,504.5,0z M353.214,15h143.429    c-3.804,41.987-39.182,75-82.144,75c-29.087,0-55.842-15.252-70.739-40.046C348.963,39.244,352.263,27.446,353.214,15z     M338.143,15C334.34,56.987,298.961,90,256,90s-78.34-33.013-82.144-75H338.143z M158.785,15    c0.952,12.446,4.252,24.244,9.454,34.954C153.342,74.748,126.587,90,97.5,90c-42.961,0-78.34-33.013-82.144-75H158.785z     M497,346.178c-4.316-1.069-7.331-3.079-10.84-5.418c-5.854-3.903-13.139-8.76-26.66-8.76s-20.806,4.857-26.66,8.76    c-3.509,2.339-6.523,4.349-10.84,5.418V127.5c0-4.142-3.358-7.5-7.5-7.5c-4.142,0-7.5,3.358-7.5,7.5V317H105V127.5    c0-4.142-3.358-7.5-7.5-7.5c-4.142,0-7.5,3.358-7.5,7.5v218.678c-4.316-1.069-7.331-3.079-10.84-5.418    C73.306,336.857,66.021,332,52.5,332s-20.806,4.857-26.66,8.76c-3.509,2.339-6.523,4.349-10.84,5.418V59.403    C32.284,86.777,62.802,105,97.5,105c31.721,0,61.094-15.348,79.273-40.738C194.485,88.913,223.398,105,256,105    s61.515-16.087,79.227-40.738C353.406,89.652,382.779,105,414.5,105c34.698,0,65.216-18.223,82.5-45.597V346.178z" fill="#933EC5"/>
	</g>
</g>
<g>
</g>
<g>
</g>
<g>
</g>
<g>
</g>
<g>
</g>
<g>
</g>
<g>
</g>
<g>
</g>
<g>
</g>
<g>
</g>
<g>
</g>
<g>
</g>
<g>
</g>
<g>
</g>
<g>
</g>
</svg>
