<?xml version="1.0" encoding="iso-8859-1"?>
<!-- Generator: Adobe Illustrator 19.0.0, SVG Export Plug-In . SVG Version: 6.00 Build 0)  -->
<svg xmlns="http://www.w3.org/2000/svg" xmlns:xlink="http://www.w3.org/1999/xlink" version="1.1" id="Capa_1" x="0px" y="0px" viewBox="0 0 511.316 511.316" style="enable-background:new 0 0 511.316 511.316;" xml:space="preserve" width="512px" height="512px">
<g>
	<g>
		<path d="M147.802,187.749c-2.208,0-3.995,1.787-3.995,3.995V487.35c0,2.207,1.787,3.994,3.995,3.994    c2.208,0,3.995-1.788,3.995-3.995V191.744C151.797,189.536,150.01,187.749,147.802,187.749z" fill="#933EC5"/>
	</g>
</g>
<g>
	<g>
		<path d="M203.727,187.749c-2.208,0-3.995,1.787-3.995,3.995V487.35c0,2.207,1.787,3.994,3.995,3.994    c2.208,0,3.995-1.788,3.995-3.995V191.744C207.722,189.536,205.935,187.749,203.727,187.749z" fill="#933EC5"/>
	</g>
</g>
<g>
	<g>
		<path d="M190.574,468.546l-23.968-23.968c-1.561-1.561-4.088-1.561-5.649,0c-1.56,1.56-1.56,4.087,0,5.648l23.968,23.969    c0.78,0.779,1.802,1.17,2.824,1.17c1.022,0,2.044-0.391,2.825-1.17C192.135,472.635,192.135,470.107,190.574,468.546z" fill="#933EC5"/>
	</g>
</g>
<g>
	<g>
		<path d="M190.572,444.578c-1.56-1.561-4.087-1.561-5.648,0l-23.968,23.968c-1.56,1.56-1.56,4.088,0,5.649    c0.781,0.779,1.803,1.17,2.825,1.17c1.022,0,2.044-0.391,2.823-1.17l23.968-23.969    C192.133,448.666,192.132,446.139,190.572,444.578z" fill="#933EC5"/>
	</g>
</g>
<g>
	<g>
		<path d="M190.574,428.6l-23.968-23.968c-1.561-1.561-4.088-1.561-5.649,0c-1.56,1.559-1.56,4.087,0,5.648l23.968,23.968    c0.78,0.78,1.802,1.17,2.824,1.17c1.022,0,2.044-0.39,2.825-1.17C192.135,432.688,192.135,430.161,190.574,428.6z" fill="#933EC5"/>
	</g>
</g>
<g>
	<g>
		<path d="M190.572,404.632c-1.56-1.561-4.087-1.561-5.648,0L160.956,428.6c-1.56,1.56-1.56,4.087,0,5.648    c0.781,0.78,1.803,1.17,2.825,1.17c1.022,0,2.044-0.39,2.823-1.17l23.968-23.968C192.133,408.72,192.133,406.192,190.572,404.632z    " fill="#933EC5"/>
	</g>
</g>
<g>
	<g>
		<path d="M190.574,388.652l-23.968-23.968c-1.561-1.56-4.088-1.56-5.649,0c-1.56,1.56-1.56,4.088,0,5.649l23.968,23.968    c0.78,0.78,1.802,1.17,2.824,1.17c1.022,0,2.044-0.389,2.825-1.17C192.135,392.741,192.135,390.213,190.574,388.652z" fill="#933EC5"/>
	</g>
</g>
<g>
	<g>
		<path d="M190.572,364.684c-1.56-1.56-4.087-1.56-5.648,0l-23.968,23.968c-1.56,1.56-1.56,4.088,0,5.649    c0.781,0.78,1.803,1.17,2.825,1.17c1.022,0,2.044-0.389,2.823-1.17l23.968-23.968    C192.133,368.773,192.133,366.245,190.572,364.684z" fill="#933EC5"/>
	</g>
</g>
<g>
	<g>
		<path d="M190.574,348.706l-23.968-23.968c-1.561-1.561-4.088-1.561-5.649,0c-1.56,1.56-1.56,4.087,0,5.648l23.968,23.969    c0.78,0.779,1.802,1.17,2.824,1.17c1.022,0,2.044-0.39,2.825-1.17C192.135,352.795,192.135,350.267,190.574,348.706z" fill="#933EC5"/>
	</g>
</g>
<g>
	<g>
		<path d="M190.572,324.738c-1.56-1.561-4.087-1.561-5.648,0l-23.968,23.968c-1.56,1.56-1.56,4.088,0,5.649    c0.781,0.779,1.803,1.17,2.825,1.17c1.022,0,2.044-0.39,2.823-1.17l23.968-23.969    C192.133,328.826,192.132,326.299,190.572,324.738z" fill="#933EC5"/>
	</g>
</g>
<g>
	<g>
		<path d="M190.574,308.76l-23.968-23.969c-1.561-1.56-4.088-1.56-5.649,0c-1.56,1.56-1.56,4.088,0,5.649l23.968,23.968    c0.78,0.78,1.802,1.17,2.824,1.17c1.022,0,2.044-0.39,2.825-1.17C192.135,312.848,192.135,310.321,190.574,308.76z" fill="#933EC5"/>
	</g>
</g>
<g>
	<g>
		<path d="M190.572,284.791c-1.56-1.56-4.087-1.56-5.648,0l-23.968,23.969c-1.56,1.56-1.56,4.087,0,5.648    c0.781,0.78,1.803,1.17,2.825,1.17c1.022,0,2.044-0.39,2.823-1.17l23.968-23.968C192.133,288.88,192.133,286.352,190.572,284.791z    " fill="#933EC5"/>
	</g>
</g>
<g>
	<g>
		<path d="M190.574,268.813l-23.968-23.968c-1.561-1.561-4.088-1.561-5.649,0c-1.56,1.56-1.56,4.087,0,5.648l23.968,23.969    c0.78,0.78,1.802,1.17,2.824,1.17c1.022,0,2.044-0.39,2.825-1.17C192.135,272.902,192.135,270.374,190.574,268.813z" fill="#933EC5"/>
	</g>
</g>
<g>
	<g>
		<path d="M190.572,244.845c-1.56-1.561-4.087-1.561-5.648,0l-23.968,23.968c-1.56,1.56-1.56,4.088,0,5.649    c0.781,0.78,1.803,1.17,2.825,1.17c1.022,0,2.044-0.39,2.823-1.17l23.968-23.969C192.133,248.933,192.132,246.406,190.572,244.845    z" fill="#933EC5"/>
	</g>
</g>
<g>
	<g>
		<path d="M190.574,228.866l-23.968-23.968c-1.561-1.561-4.088-1.561-5.649,0c-1.56,1.559-1.56,4.087,0,5.648l23.968,23.968    c0.78,0.78,1.802,1.171,2.824,1.171c1.022,0,2.044-0.39,2.825-1.171C192.135,232.954,192.135,230.427,190.574,228.866z" fill="#933EC5"/>
	</g>
</g>
<g>
	<g>
		<path d="M190.572,204.898c-1.56-1.561-4.087-1.561-5.648,0l-23.968,23.968c-1.56,1.56-1.56,4.087,0,5.648    c0.781,0.78,1.803,1.171,2.825,1.171c1.022,0,2.044-0.39,2.823-1.171l23.968-23.968    C192.133,208.986,192.133,206.458,190.572,204.898z" fill="#933EC5"/>
	</g>
</g>
<g>
	<g>
		<path d="M235.685,171.771H131.824c-2.208,0-3.995,1.786-3.995,3.994s1.787,3.995,3.995,3.995h103.861    c2.208,0,3.995-1.787,3.995-3.995S237.893,171.771,235.685,171.771z" fill="#933EC5"/>
	</g>
</g>
<g>
	<g>
		<path d="M239.562,174.797l-15.979-63.915c-0.53-2.141-2.738-3.468-4.845-2.906c-2.145,0.534-3.441,2.703-2.91,4.842l15.98,63.915    c0.452,1.818,2.083,3.027,3.877,3.027c0.32,0,0.647-0.04,0.967-0.122C238.797,179.104,240.093,176.935,239.562,174.797z" fill="#933EC5"/>
	</g>
</g>
<g>
	<g>
		<path d="M219.706,107.856h-87.882c-2.208,0-3.995,1.787-3.995,3.995s1.787,3.994,3.995,3.994h87.882    c2.208,0,3.995-1.786,3.995-3.994S221.914,107.856,219.706,107.856z" fill="#933EC5"/>
	</g>
</g>
<g>
	<g>
		<path d="M131.824,107.856c-2.208,0-3.995,1.787-3.995,3.995v63.914c0,2.208,1.787,3.995,3.995,3.995s3.994-1.788,3.995-3.995    v-63.914C135.819,109.643,134.032,107.856,131.824,107.856z" fill="#933EC5"/>
	</g>
</g>
<g>
	<g>
		<path d="M203.727,115.844c-2.208,0-3.995,1.787-3.995,3.995v47.936c0,2.208,1.787,3.995,3.995,3.995    c2.208,0,3.995-1.787,3.995-3.995v-47.936C207.722,117.631,205.935,115.844,203.727,115.844z" fill="#933EC5"/>
	</g>
</g>
<g>
	<g>
		<path d="M507.322,115.845H235.685c-2.208,0-3.995,1.787-3.995,3.995s1.787,3.994,3.995,3.994h271.637    c2.208,0,3.994-1.786,3.994-3.994S509.53,115.845,507.322,115.845z" fill="#933EC5"/>
	</g>
</g>
<g>
	<g>
		<path d="M491.343,155.792H243.674c-2.208,0-3.995,1.786-3.995,3.994s1.787,3.995,3.995,3.995h247.67    c2.208,0,3.993-1.787,3.993-3.995S493.551,155.792,491.343,155.792z" fill="#933EC5"/>
	</g>
</g>
<g>
	<g>
		<path d="M508.805,116.13c-2.036-0.823-4.369,0.18-5.188,2.228l-15.979,39.946c-0.819,2.048,0.172,4.373,2.224,5.192    c0.483,0.195,0.99,0.285,1.482,0.285c1.584,0,3.082-0.948,3.706-2.513l15.979-39.946    C511.848,119.275,510.857,116.949,508.805,116.13z" fill="#933EC5"/>
	</g>
</g>
<g>
	<g>
		<path d="M395.471,171.771c-2.208,0-3.995,1.786-3.995,3.994v7.99c0,2.208,1.787,3.994,3.995,3.994s3.996-1.786,3.995-3.994v-7.99    C399.466,173.557,397.679,171.771,395.471,171.771z" fill="#933EC5"/>
	</g>
</g>
<g>
	<g>
		<path d="M427.429,179.76h-31.957c-2.208,0-3.995,1.787-3.995,3.995s1.787,3.994,3.995,3.994h31.957    c2.208,0,3.995-1.786,3.995-3.994S429.637,179.76,427.429,179.76z" fill="#933EC5"/>
	</g>
</g>
<g>
	<g>
		<path d="M427.429,171.771c-2.208,0-3.994,1.786-3.994,3.994v7.99c0,2.208,1.786,3.994,3.994,3.994s3.995-1.786,3.995-3.994v-7.99    C431.424,173.557,429.637,171.771,427.429,171.771z" fill="#933EC5"/>
	</g>
</g>
<g>
	<g>
		<path d="M411.45,195.738c-2.208,0-3.995,1.787-3.995,3.995v111.851c0,2.208,1.787,3.994,3.995,3.994s3.995-1.786,3.995-3.994    V199.733C415.445,197.525,413.658,195.738,411.45,195.738z" fill="#933EC5"/>
	</g>
</g>
<g>
	<g>
		<path d="M426.594,325.105c-0.755-0.975-1.919-1.537-3.151-1.537h-23.968c-1.233,0-2.395,0.561-3.152,1.537    c-0.757,0.967-1.023,2.231-0.726,3.425l7.989,31.957c0.444,1.778,2.044,3.027,3.877,3.027h7.99c1.833,0,3.433-1.249,3.878-3.027    l7.99-31.957C427.616,327.335,427.351,326.072,426.594,325.105z M412.332,355.525h-1.748l-5.992-23.969h13.732L412.332,355.525z" fill="#933EC5"/>
	</g>
</g>
<g>
	<g>
		<path d="M410.78,357.289c-1.24-1.842-3.722-2.31-5.547-1.077c-1.834,1.232-2.317,3.714-1.085,5.539    c9.043,13.404,9.66,21.425,7.225,24.46c-1.389,1.725-3.8,1.833-5.477,1.17c-0.976-0.382-2.599-1.365-2.435-3.612    c0.156-2.2-1.498-4.104-3.706-4.26c-2.029-0.196-4.104,1.49-4.268,3.698c-0.366,5.204,2.505,9.659,7.498,11.609    c1.63,0.64,3.307,0.952,4.946,0.952c3.746,0,7.311-1.607,9.676-4.564C420.86,387.146,424.301,377.34,410.78,357.289z" fill="#933EC5"/>
	</g>
</g>
<g>
	<g>
		<path d="M262.477,144.978l-15.979-15.979c-1.56-1.56-4.088-1.56-5.649,0c-1.56,1.56-1.56,4.088,0,5.649l15.979,15.979    c0.781,0.78,1.803,1.17,2.825,1.17c1.022,0,2.044-0.39,2.824-1.171C264.038,149.066,264.038,146.538,262.477,144.978z" fill="#933EC5"/>
	</g>
</g>
<g>
	<g>
		<path d="M262.477,129c-1.56-1.56-4.088-1.56-5.649,0l-15.979,15.979c-1.56,1.559-1.56,4.087,0,5.648    c0.781,0.78,1.803,1.17,2.825,1.17c1.022,0,2.045-0.39,2.824-1.169l15.979-15.979C264.038,133.089,264.038,130.561,262.477,129z" fill="#933EC5"/>
	</g>
</g>
<g>
	<g>
		<path d="M110.68,144.978l-15.979-15.979c-1.56-1.56-4.087-1.56-5.648,0c-1.561,1.56-1.561,4.088,0,5.649l15.978,15.979    c0.78,0.78,1.802,1.17,2.824,1.17c1.023,0,2.045-0.39,2.825-1.171C112.241,149.066,112.241,146.538,110.68,144.978z" fill="#933EC5"/>
	</g>
</g>
<g>
	<g>
		<path d="M110.68,129c-1.56-1.56-4.087-1.56-5.648,0l-15.979,15.979c-1.561,1.559-1.561,4.087,0,5.648    c0.78,0.78,1.802,1.17,2.824,1.17c1.022,0,2.044-0.39,2.824-1.169l15.979-15.979C112.241,133.089,112.241,130.561,110.68,129z" fill="#933EC5"/>
	</g>
</g>
<g>
	<g>
		<path d="M294.434,144.978l-15.979-15.979c-1.56-1.56-4.088-1.56-5.648,0c-1.561,1.56-1.561,4.088,0,5.649l15.979,15.979    c0.78,0.78,1.802,1.17,2.824,1.17c1.023,0,2.044-0.39,2.824-1.171C295.995,149.066,295.995,146.538,294.434,144.978z" fill="#933EC5"/>
	</g>
</g>
<g>
	<g>
		<path d="M294.435,129c-1.56-1.56-4.087-1.56-5.648,0l-15.979,15.979c-1.561,1.559-1.561,4.087,0,5.648    c0.78,0.78,1.802,1.17,2.824,1.17c1.022,0,2.044-0.39,2.824-1.169l15.979-15.979C295.996,133.089,295.996,130.561,294.435,129z" fill="#933EC5"/>
	</g>
</g>
<g>
	<g>
		<path d="M326.391,144.978l-15.979-15.979c-1.559-1.56-4.087-1.56-5.648,0c-1.561,1.56-1.561,4.088,0,5.649l15.979,15.979    c0.78,0.78,1.803,1.17,2.824,1.17c1.023,0,2.044-0.39,2.824-1.171C327.951,149.066,327.951,146.538,326.391,144.978z" fill="#933EC5"/>
	</g>
</g>
<g>
	<g>
		<path d="M326.393,129c-1.56-1.56-4.088-1.56-5.649,0l-15.979,15.979c-1.561,1.559-1.561,4.087,0,5.648    c0.78,0.78,1.802,1.17,2.824,1.17c1.022,0,2.044-0.39,2.825-1.169l15.979-15.979C327.953,133.089,327.953,130.561,326.393,129z" fill="#933EC5"/>
	</g>
</g>
<g>
	<g>
		<path d="M358.35,144.978l-15.979-15.979c-1.56-1.56-4.088-1.56-5.649,0c-1.56,1.56-1.56,4.088,0,5.649l15.979,15.979    c0.779,0.78,1.802,1.17,2.824,1.17c1.022,0,2.044-0.39,2.825-1.171C359.911,149.066,359.911,146.538,358.35,144.978z" fill="#933EC5"/>
	</g>
</g>
<g>
	<g>
		<path d="M358.349,129c-1.56-1.56-4.088-1.56-5.648,0l-15.979,15.979c-1.56,1.559-1.56,4.087,0,5.648    c0.78,0.78,1.803,1.17,2.825,1.17c1.021,0,2.043-0.39,2.823-1.169l15.979-15.979C359.91,133.089,359.91,130.561,358.349,129z" fill="#933EC5"/>
	</g>
</g>
<g>
	<g>
		<path d="M390.306,144.978l-15.979-15.979c-1.56-1.56-4.087-1.56-5.648,0c-1.561,1.56-1.561,4.088,0,5.649l15.979,15.979    c0.78,0.78,1.802,1.17,2.824,1.17c1.022,0,2.044-0.39,2.824-1.171C391.867,149.066,391.867,146.538,390.306,144.978z" fill="#933EC5"/>
	</g>
</g>
<g>
	<g>
		<path d="M390.306,128.999c-1.56-1.56-4.087-1.56-5.648,0l-15.978,15.98c-1.561,1.559-1.561,4.087,0,5.648    c0.779,0.78,1.802,1.17,2.824,1.17c1.021,0,2.044-0.39,2.823-1.17l15.979-15.979C391.867,133.088,391.867,130.56,390.306,128.999z    " fill="#933EC5"/>
	</g>
</g>
<g>
	<g>
		<path d="M422.263,144.978l-15.979-15.979c-1.56-1.56-4.087-1.56-5.648,0c-1.561,1.56-1.561,4.088,0,5.649l15.979,15.979    c0.78,0.78,1.803,1.17,2.824,1.17c1.023,0,2.045-0.39,2.824-1.171C423.824,149.066,423.824,146.538,422.263,144.978z" fill="#933EC5"/>
	</g>
</g>
<g>
	<g>
		<path d="M422.264,129c-1.56-1.56-4.087-1.56-5.648,0l-15.979,15.979c-1.561,1.559-1.561,4.087,0,5.648    c0.78,0.78,1.803,1.17,2.824,1.17c1.022,0,2.044-0.39,2.824-1.169l15.979-15.979C423.825,133.089,423.825,130.561,422.264,129z" fill="#933EC5"/>
	</g>
</g>
<g>
	<g>
		<path d="M454.22,144.978l-15.979-15.979c-1.56-1.56-4.087-1.56-5.648,0c-1.561,1.56-1.561,4.088,0,5.649l15.979,15.979    c0.78,0.78,1.803,1.17,2.824,1.17c1.023,0,2.045-0.39,2.824-1.171C455.78,149.066,455.78,146.538,454.22,144.978z" fill="#933EC5"/>
	</g>
</g>
<g>
	<g>
		<path d="M454.222,129c-1.56-1.56-4.088-1.56-5.649,0l-15.979,15.979c-1.561,1.559-1.561,4.087,0,5.648    c0.78,0.78,1.803,1.17,2.824,1.17c1.022,0,2.045-0.39,2.825-1.169l15.979-15.979C455.782,133.089,455.782,130.561,454.222,129z" fill="#933EC5"/>
	</g>
</g>
<g>
	<g>
		<path d="M486.179,144.978L470.2,128.999c-1.56-1.56-4.088-1.56-5.649,0c-1.56,1.56-1.56,4.088,0,5.649l15.979,15.979    c0.78,0.78,1.802,1.17,2.824,1.17c1.023,0,2.044-0.39,2.825-1.171C487.74,149.066,487.74,146.538,486.179,144.978z" fill="#933EC5"/>
	</g>
</g>
<g>
	<g>
		<path d="M486.178,129c-1.56-1.56-4.088-1.56-5.648,0l-15.979,15.979c-1.56,1.559-1.56,4.087,0,5.648    c0.781,0.78,1.803,1.17,2.825,1.17c1.021,0,2.044-0.39,2.823-1.169l15.979-15.979C487.739,133.089,487.739,130.561,486.178,129z" fill="#933EC5"/>
	</g>
</g>
<g>
	<g>
		<path d="M115.844,115.845H83.887c-2.208,0-3.995,1.787-3.995,3.995s1.787,3.994,3.995,3.994h31.958    c2.208,0,3.994-1.786,3.994-3.994S118.052,115.845,115.844,115.845z" fill="#933EC5"/>
	</g>
</g>
<g>
	<g>
		<path d="M115.844,155.792H83.887c-2.208,0-3.995,1.786-3.995,3.994s1.787,3.995,3.995,3.995h31.958    c2.208,0,3.994-1.787,3.994-3.995S118.052,155.792,115.844,155.792z" fill="#933EC5"/>
	</g>
</g>
<g>
	<g>
		<path d="M67.909,91.877H51.93c-6.906,0-19.974,4.174-19.974,19.974v71.904c0,2.208,1.787,3.994,3.995,3.994h31.958    c2.208,0,3.994-1.786,3.994-3.994V95.872C71.903,93.664,70.117,91.877,67.909,91.877z M63.914,179.76H39.946v-67.91    c0-11.278,10.002-11.961,11.984-11.984h11.984V179.76z" fill="#933EC5"/>
	</g>
</g>
<g>
	<g>
		<path d="M19.973,115.845H3.994c-2.208,0-3.994,1.787-3.994,3.995s1.786,3.994,3.994,3.994h15.978c2.208,0,3.996-1.786,3.996-3.994    S22.181,115.845,19.973,115.845z" fill="#933EC5"/>
	</g>
</g>
<g>
	<g>
		<path d="M19.973,155.792H3.994c-2.208,0-3.994,1.786-3.994,3.994s1.786,3.995,3.994,3.995h15.978c2.208,0,3.996-1.787,3.996-3.995    S22.181,155.792,19.973,155.792z" fill="#933EC5"/>
	</g>
</g>
<g>
	<g>
		<path d="M175.764,3.994c-2.208,0-3.994,1.787-3.994,3.995v87.883c0,2.208,1.786,3.994,3.994,3.994s3.996-1.786,3.995-3.994V7.989    C179.759,5.781,177.972,3.994,175.764,3.994z" fill="#933EC5"/>
	</g>
</g>
<g>
	<g>
		<path d="M3.994,115.845c-2.208,0-3.994,1.787-3.994,3.995v39.946c0,2.208,1.786,3.995,3.994,3.995s3.995-1.787,3.995-3.995V119.84    C7.989,117.632,6.202,115.845,3.994,115.845z" fill="#933EC5"/>
	</g>
</g>
<g>
	<g>
		<path d="M162.688,29.21c-1.521-1.603-4.041-1.677-5.648-0.152l-75.899,71.904c-1.599,1.518-1.67,4.045-0.156,5.645    c0.788,0.831,1.841,1.248,2.902,1.248c0.983,0,1.974-0.362,2.746-1.096l75.899-71.904C164.131,33.337,164.202,30.81,162.688,29.21    z" fill="#933EC5"/>
	</g>
</g>
<g>
	<g>
		<path d="M460.432,100.003l-267.65-71.904c-2.146-0.574-4.323,0.69-4.892,2.82c-0.578,2.13,0.686,4.323,2.816,4.896l267.65,71.903    c0.35,0.094,0.694,0.137,1.038,0.137c1.763,0,3.378-1.174,3.854-2.956C463.827,102.769,462.562,100.576,460.432,100.003z" fill="#933EC5"/>
	</g>
</g>
<g>
	<g>
		<path d="M147.802,123.834c-2.208,0-3.995,1.787-3.995,3.995v31.957c0,2.208,1.787,3.995,3.995,3.995    c2.208,0,3.995-1.787,3.995-3.995v-31.957C151.797,125.621,150.01,123.834,147.802,123.834z" fill="#933EC5"/>
	</g>
</g>
<g>
	<g>
		<path d="M179.76,155.792h-31.958c-2.208,0-3.995,1.786-3.995,3.994s1.787,3.995,3.995,3.995h31.958    c2.208,0,3.995-1.787,3.995-3.995S181.968,155.792,179.76,155.792z" fill="#933EC5"/>
	</g>
</g>
<g>
	<g>
		<path d="M179.76,123.834c-2.208,0-3.995,1.787-3.995,3.995v31.957c0,2.208,1.787,3.995,3.995,3.995    c2.208,0,3.994-1.787,3.995-3.995v-31.957C183.755,125.621,181.968,123.834,179.76,123.834z" fill="#933EC5"/>
	</g>
</g>
<g>
	<g>
		<path d="M179.76,123.834h-31.958c-2.208,0-3.995,1.787-3.995,3.995c0,2.208,1.787,3.995,3.995,3.995h31.958    c2.208,0,3.995-1.787,3.995-3.995C183.755,125.621,181.968,123.834,179.76,123.834z" fill="#933EC5"/>
	</g>
</g>
<g>
	<g>
		<path d="M171.77,139.814h-15.979c-2.208,0-3.995,1.786-3.995,3.994c0,2.208,1.787,3.995,3.995,3.995h15.979    c2.208,0,3.994-1.787,3.994-3.995S173.978,139.814,171.77,139.814z" fill="#933EC5"/>
	</g>
</g>
<g>
	<g>
		<path d="M310.585,499.333H43.941c-2.208,0-3.995,1.787-3.995,3.995c0,2.208,1.787,3.994,3.995,3.994h266.644    c2.208,0,3.995-1.786,3.995-3.994S312.793,499.333,310.585,499.333z" fill="#933EC5"/>
	</g>
</g>
<g>
</g>
<g>
</g>
<g>
</g>
<g>
</g>
<g>
</g>
<g>
</g>
<g>
</g>
<g>
</g>
<g>
</g>
<g>
</g>
<g>
</g>
<g>
</g>
<g>
</g>
<g>
</g>
<g>
</g>
</svg>
