<?xml version="1.0" encoding="iso-8859-1"?>
<!-- Generator: Adobe Illustrator 19.0.0, SVG Export Plug-In . SVG Version: 6.00 Build 0)  -->
<svg xmlns="http://www.w3.org/2000/svg" xmlns:xlink="http://www.w3.org/1999/xlink" version="1.1" id="Capa_1" x="0px" y="0px" viewBox="0 0 511.766 511.766" style="enable-background:new 0 0 511.766 511.766;" xml:space="preserve" width="512px" height="512px">
<g>
	<g>
		<path d="M491.791,367.488l-27.77-157.499c-0.39-2.178-2.522-3.627-4.63-3.24c-2.171,0.383-3.624,2.456-3.241,4.631l27.769,157.498    c0.344,1.937,2.031,3.304,3.928,3.304c0.234,0,0.469-0.024,0.703-0.063C490.721,371.736,492.173,369.659,491.791,367.488z" fill="#933EC5"/>
	</g>
</g>
<g>
	<g>
		<path d="M495.962,391.11c-6.006-33.993-124.92-29.011-138.469-28.323c-2.201,0.11-3.904,1.984-3.787,4.186    c0.101,2.202,1.78,3.904,4.193,3.795c48.423-2.445,126.583,1.32,130.19,21.732c0.344,1.945,2.031,3.303,3.928,3.303    c0.234,0,0.469-0.016,0.704-0.063C494.892,395.358,496.344,393.289,495.962,391.11z" fill="#933EC5"/>
	</g>
</g>
<g>
	<g>
		<path d="M459.851,186.358c-0.383-2.178-2.506-3.627-4.631-3.24c-2.17,0.383-3.623,2.456-3.24,4.631    c6.263,35.515-80.471,58.848-114.424,64.845c-2.171,0.383-3.623,2.456-3.241,4.632c0.344,1.94,2.031,3.303,3.929,3.303    c0.234,0,0.468-0.019,0.702-0.064c0.321-0.055,32.22-5.752,62.675-17.211C444.101,227.265,463.694,208.122,459.851,186.358z" fill="#933EC5"/>
	</g>
</g>
<g>
	<g>
		<path d="M475.61,183.592c-0.375-2.179-2.491-3.593-4.631-3.249l-15.759,2.772c-2.17,0.383-3.623,2.456-3.24,4.631    c0.336,1.941,2.031,3.307,3.928,3.307c0.235,0,0.469-0.02,0.703-0.059l15.758-2.771    C474.541,187.84,475.993,185.767,475.61,183.592z" fill="#933EC5"/>
	</g>
</g>
<g>
	<g>
		<path d="M511.703,388.337l-36.093-204.75c-0.383-2.179-2.491-3.628-4.631-3.241c-2.171,0.383-3.623,2.456-3.24,4.631    l36.093,204.75c0.344,1.937,2.031,3.304,3.928,3.304c0.234,0,0.469-0.023,0.703-0.063    C510.633,392.585,512.086,390.508,511.703,388.337z" fill="#933EC5"/>
	</g>
</g>
<g>
	<g>
		<path d="M511.703,388.338c-0.391-2.186-2.515-3.646-4.631-3.24l-15.742,2.771c-2.171,0.383-3.624,2.452-3.241,4.631    c0.344,1.945,2.031,3.303,3.928,3.303c0.234,0,0.469-0.016,0.703-0.063l15.743-2.771    C510.633,392.586,512.086,390.509,511.703,388.338z" fill="#933EC5"/>
	</g>
</g>
<g>
	<g>
		<path d="M361.632,366.082c-0.382-2.178-2.49-3.638-4.63-3.24l-74.81,13.189l-18.055-102.375l74.81-13.189    c2.171-0.383,3.624-2.456,3.241-4.631c-0.391-2.179-2.515-3.638-4.631-3.241l-78.745,13.885c-1.047,0.179-1.976,0.773-2.577,1.647    c-0.609,0.859-0.852,1.937-0.664,2.983l19.444,110.246c0.344,1.937,2.031,3.304,3.928,3.304c0.234,0,0.468-0.023,0.704-0.062    l78.745-13.885C360.563,370.33,362.015,368.253,361.632,366.082z" fill="#933EC5"/>
	</g>
</g>
<g>
	<g>
		<path d="M282.886,379.966L263.442,269.72c-0.227-1.305-1.093-2.413-2.303-2.952c-1.211-0.531-2.608-0.438-3.741,0.25    l-36.592,22.692c-1.39,0.86-2.117,2.484-1.828,4.092l13.885,78.745c0.281,1.609,1.514,2.89,3.115,3.218l42.153,8.809    c0.273,0.063,0.546,0.086,0.819,0.086c1.032,0,2.031-0.398,2.781-1.133C282.684,382.606,283.12,381.278,282.886,379.966z     M240.265,368.487l-12.947-73.403l29.276-18.164l17.391,98.619L240.265,368.487z" fill="#933EC5"/>
	</g>
</g>
<g>
	<g>
		<path d="M358.851,350.324l-13.885-78.745c-0.383-2.186-2.49-3.639-4.631-3.241c-2.17,0.383-3.623,2.46-3.24,4.631l13.885,78.745    c0.343,1.937,2.03,3.304,3.928,3.304c0.235,0,0.469-0.024,0.702-0.063C357.781,354.572,359.234,352.495,358.851,350.324z" fill="#933EC5"/>
	</g>
</g>
<g>
	<g>
		<path d="M253.243,304.002c-0.382-2.187-2.49-3.624-4.63-3.249l-7.872,1.374c-2.171,0.391-3.623,2.46-3.24,4.639    c0.336,1.937,2.023,3.304,3.928,3.304c0.234,0,0.468-0.024,0.702-0.055l7.872-1.391    C252.174,308.25,253.626,306.172,253.243,304.002z" fill="#933EC5"/>
	</g>
</g>
<g>
	<g>
		<path d="M261.583,351.245c-0.382-2.171-2.483-3.607-4.622-3.248l-7.888,1.39c-2.179,0.375-3.631,2.452-3.248,4.623    c0.336,1.945,2.023,3.311,3.928,3.311c0.234,0,0.461-0.016,0.695-0.063l7.887-1.374    C260.514,355.493,261.966,353.424,261.583,351.245z" fill="#933EC5"/>
	</g>
</g>
<g>
	<g>
		<path d="M257.413,327.614c-0.389-2.185-2.522-3.646-4.63-3.24l-7.872,1.39c-2.171,0.383-3.623,2.46-3.24,4.631    c0.344,1.937,2.031,3.304,3.928,3.304c0.234,0,0.469-0.023,0.702-0.063l7.872-1.391    C256.344,331.862,257.796,329.786,257.413,327.614z" fill="#933EC5"/>
	</g>
</g>
<g>
	<g>
		<path d="M286.369,261.614c-0.391-2.178-2.523-3.627-4.631-3.24l-15.743,2.78c-2.171,0.383-3.623,2.455-3.24,4.631    c0.344,1.936,2.031,3.303,3.928,3.303c0.234,0,0.469-0.023,0.703-0.063l15.742-2.78    C285.299,265.862,286.752,263.789,286.369,261.614z" fill="#933EC5"/>
	</g>
</g>
<g>
	<g>
		<path d="M389.97,481.709l-37.514-74.575c-1-1.983-3.413-2.772-5.365-1.772c-1.975,0.984-2.764,3.388-1.772,5.365l37.514,74.574    c0.703,1.398,2.109,2.203,3.569,2.203c0.608,0,1.217-0.133,1.796-0.43C390.173,486.09,390.962,483.685,389.97,481.709z" fill="#933EC5"/>
	</g>
</g>
<g>
	<g>
		<path d="M350.598,488.659l-37.515-74.591c-0.999-1.991-3.404-2.772-5.364-1.772c-1.975,0.983-2.764,3.388-1.773,5.364    l37.515,74.591c0.703,1.397,2.108,2.202,3.568,2.202c0.609,0,1.218-0.132,1.796-0.43    C350.801,493.04,351.589,490.635,350.598,488.659z" fill="#933EC5"/>
	</g>
</g>
<g>
	<g>
		<path d="M398.208,481.419c-0.39-2.186-2.507-3.638-4.63-3.24l-55.132,9.722c-2.171,0.383-3.623,2.452-3.24,4.631    c0.344,1.945,2.031,3.304,3.928,3.304c0.234,0,0.469-0.015,0.703-0.063l55.131-9.723    C397.139,485.667,398.591,483.59,398.208,481.419z" fill="#933EC5"/>
	</g>
</g>
<g>
	<g>
		<path d="M294.928,402.207l-1.562-8.863c-0.39-2.179-2.514-3.647-4.63-3.241c-2.171,0.383-3.624,2.452-3.241,4.631l1.562,8.863    c0.343,1.937,2.03,3.303,3.928,3.303c0.234,0,0.467-0.024,0.702-0.063C293.858,406.455,295.311,404.377,294.928,402.207z" fill="#933EC5"/>
	</g>
</g>
<g>
	<g>
		<path d="M365.84,389.963c-0.39-2.179-2.482-3.623-4.622-3.264l-70.905,12.26c-2.179,0.375-3.639,2.452-3.264,4.623    c0.343,1.952,2.03,3.318,3.936,3.318c0.226,0,0.46-0.024,0.686-0.054l70.905-12.26    C364.755,394.211,366.215,392.134,365.84,389.963z" fill="#933EC5"/>
	</g>
</g>
<g>
	<g>
		<path d="M365.832,389.946l-1.39-7.871c-0.383-2.179-2.499-3.639-4.631-3.241c-2.171,0.383-3.623,2.46-3.24,4.631l1.39,7.871    c0.344,1.938,2.031,3.304,3.928,3.304c0.234,0,0.469-0.024,0.703-0.063C364.763,394.194,366.215,392.117,365.832,389.946z" fill="#933EC5"/>
	</g>
</g>
<g>
	<g>
		<path d="M507.768,15.93c-2.21,0-3.998,1.789-3.998,3.999v239.89c0,2.21,1.788,3.998,3.998,3.998c2.21,0,3.998-1.788,3.998-3.998    V19.929C511.766,17.719,509.978,15.93,507.768,15.93z" fill="#933EC5"/>
	</g>
</g>
<g>
	<g>
		<path d="M51.976,15.93c-2.209,0-3.998,1.789-3.998,3.999v351.839c0,2.21,1.789,3.998,3.998,3.998c2.21,0,3.999-1.788,3.999-3.998    V19.929C55.975,17.719,54.186,15.93,51.976,15.93z" fill="#933EC5"/>
	</g>
</g>
<g>
	<g>
		<path d="M51.976,367.77c-2.209,0-3.998,1.788-3.998,3.998c0,11.025-8.965,19.99-19.991,19.99c-2.21,0-3.998,1.789-3.998,3.998    c0,2.211,1.788,3.998,3.998,3.998c15.431,0,27.988-12.557,27.988-27.986C55.975,369.558,54.186,367.77,51.976,367.77z" fill="#933EC5"/>
	</g>
</g>
<g>
	<g>
		<path d="M27.987,391.758c-11.026,0-19.991-8.965-19.991-19.99c0-2.21-1.788-3.998-3.998-3.998c-2.21,0-3.998,1.788-3.998,3.998    c0,15.429,12.556,27.986,27.987,27.986c2.21,0,3.999-1.787,3.998-3.998C31.985,393.547,30.197,391.758,27.987,391.758z" fill="#933EC5"/>
	</g>
</g>
<g>
	<g>
		<path d="M3.998,39.919C1.788,39.919,0,41.707,0,43.917v327.851c0,2.21,1.788,3.998,3.998,3.998c2.21,0,3.998-1.788,3.998-3.998    V43.917C7.996,41.707,6.208,39.919,3.998,39.919z" fill="#933EC5"/>
	</g>
</g>
<g>
	<g>
		<path d="M35.984,23.927c-2.21,0-3.998,1.788-3.998,3.998v343.843c0,2.21,1.788,3.998,3.998,3.998c2.21,0,3.998-1.788,3.998-3.998    V27.925C39.982,25.715,38.194,23.927,35.984,23.927z" fill="#933EC5"/>
	</g>
</g>
<g>
	<g>
		<path d="M19.991,31.923c-2.209,0-3.998,1.788-3.998,3.998v335.847c0,2.21,1.789,3.998,3.998,3.998c2.21,0,3.998-1.788,3.999-3.998    V35.921C23.99,33.711,22.201,31.923,19.991,31.923z" fill="#933EC5"/>
	</g>
</g>
<g>
	<g>
		<path d="M35.983,367.77c-2.21,0-3.998,1.788-3.998,3.998c0,2.202-1.796,3.998-3.998,3.998c-2.21,0-3.998,1.788-3.998,3.998    c0,2.21,1.788,3.998,3.998,3.998c6.615,0,11.995-5.381,11.994-11.994C39.981,369.558,38.193,367.77,35.983,367.77z" fill="#933EC5"/>
	</g>
</g>
<g>
	<g>
		<path d="M27.987,375.766c-2.202,0-3.998-1.796-3.998-3.998c0-2.21-1.789-3.998-3.999-3.998c-2.209,0-3.998,1.788-3.998,3.998    c0,6.613,5.381,11.994,11.995,11.994c2.21,0,3.998-1.788,3.998-3.998C31.985,377.554,30.197,375.766,27.987,375.766z" fill="#933EC5"/>
	</g>
</g>
<g>
	<g>
		<path d="M252.634,391.758H27.987c-2.21,0-3.998,1.789-3.998,3.998c0,2.211,1.788,3.998,3.998,3.998h224.647    c2.21,0,3.999-1.787,3.999-3.998C256.633,393.547,254.844,391.758,252.634,391.758z" fill="#933EC5"/>
	</g>
</g>
<g>
	<g>
		<path d="M507.768,15.93H51.976c-2.209,0-3.998,1.789-3.998,3.999c0,2.209,1.789,3.998,3.998,3.998h455.792    c2.21,0,3.998-1.789,3.998-3.998C511.766,17.719,509.978,15.93,507.768,15.93z" fill="#933EC5"/>
	</g>
</g>
<g>
	<g>
		<path d="M475.782,47.915H99.954c-2.21,0-3.998,1.789-3.998,3.999v47.978c0,2.21,1.788,3.998,3.998,3.998h375.828    c2.21,0,3.998-1.788,3.998-3.998V51.914C479.78,49.704,477.992,47.915,475.782,47.915z M471.784,95.894H103.952V55.912h367.832    V95.894z" fill="#933EC5"/>
	</g>
</g>
<g>
	<g>
		<path d="M451.793,71.905h-327.85c-2.21,0-3.998,1.788-3.998,3.998c0,2.21,1.788,3.998,3.998,3.998h327.85    c2.21,0,3.998-1.788,3.998-3.998C455.791,73.693,454.003,71.905,451.793,71.905z" fill="#933EC5"/>
	</g>
</g>
<g>
	<g>
		<path d="M459.789,391.758h-71.967c-2.21,0-3.998,1.789-3.998,3.998c0,2.211,1.788,3.998,3.998,3.998h71.967    c2.211,0,3.998-1.787,3.998-3.998C463.787,393.547,462,391.758,459.789,391.758z" fill="#933EC5"/>
	</g>
</g>
<g>
	<g>
		<path d="M211.903,127.879H99.954c-2.21,0-3.998,1.788-3.998,3.998v71.967c0,2.21,1.788,3.998,3.998,3.998h111.95    c2.209,0,3.998-1.788,3.997-3.998v-71.967C215.901,129.667,214.112,127.879,211.903,127.879z M207.905,199.846H103.952v-63.971    h103.953V199.846z" fill="#933EC5"/>
	</g>
</g>
<g>
	<g>
		<path d="M174.319,160.665c-1.749-1.316-4.264-0.972-5.599,0.8l-23.989,31.985c-1.319,1.765-0.96,4.272,0.805,5.596    c0.718,0.538,1.561,0.8,2.397,0.8c1.21,0,2.412-0.551,3.202-1.601l23.989-31.985C176.443,164.495,176.084,161.988,174.319,160.665    z" fill="#933EC5"/>
	</g>
</g>
<g>
	<g>
		<path d="M199.112,193.45l-23.989-31.985c-1.335-1.777-3.842-2.12-5.599-0.8c-1.765,1.324-2.124,3.83-0.804,5.595l23.989,31.985    c0.788,1.05,1.991,1.601,3.201,1.601c0.836,0,1.679-0.262,2.397-0.8C200.072,197.721,200.431,195.215,199.112,193.45z" fill="#933EC5"/>
	</g>
</g>
<g>
	<g>
		<path d="M142.154,168.533c-1.827-1.219-4.311-0.731-5.544,1.108l-15.993,23.989c-1.226,1.839-0.726,4.318,1.109,5.544    c0.679,0.453,1.452,0.672,2.218,0.672c1.288,0,2.553-0.625,3.326-1.78l15.993-23.989    C144.489,172.238,143.989,169.759,142.154,168.533z" fill="#933EC5"/>
	</g>
</g>
<g>
	<g>
		<path d="M148.587,177.638l-5.325-7.997c-1.233-1.838-3.725-2.335-5.544-1.108c-1.836,1.222-2.335,3.705-1.109,5.544l5.326,7.997    c0.773,1.155,2.038,1.78,3.327,1.78c0.765,0,1.538-0.219,2.217-0.672C149.314,181.96,149.814,179.477,148.587,177.638z" fill="#933EC5"/>
	</g>
</g>
<g>
	<g>
		<path d="M123.944,143.872c-6.615,0-11.995,5.381-11.995,11.995c0,6.614,5.381,11.994,11.995,11.994    c6.614,0,11.994-5.38,11.994-11.994C135.938,149.253,130.559,143.872,123.944,143.872z M123.944,159.864    c-2.202,0-3.998-1.792-3.998-3.998s1.796-3.998,3.998-3.998c2.202,0,3.998,1.792,3.998,3.998S126.146,159.864,123.944,159.864z" fill="#933EC5"/>
	</g>
</g>
<g>
	<g>
		<path d="M339.845,127.879H235.892c-2.21,0-3.999,1.788-3.999,3.998c0,2.21,1.789,3.998,3.999,3.998h103.953    c2.21,0,3.998-1.788,3.998-3.998C343.843,129.667,342.055,127.879,339.845,127.879z" fill="#933EC5"/>
	</g>
</g>
<g>
	<g>
		<path d="M339.845,151.868H235.892c-2.21,0-3.999,1.788-3.999,3.998c0,2.21,1.789,3.998,3.999,3.998h103.953    c2.21,0,3.998-1.788,3.998-3.998C343.843,153.656,342.055,151.868,339.845,151.868z" fill="#933EC5"/>
	</g>
</g>
<g>
	<g>
		<path d="M339.845,175.857H235.892c-2.21,0-3.999,1.789-3.999,3.999c0,2.21,1.789,3.998,3.999,3.998h103.953    c2.21,0,3.998-1.788,3.998-3.998C343.843,177.646,342.055,175.857,339.845,175.857z" fill="#933EC5"/>
	</g>
</g>
<g>
	<g>
		<path d="M339.845,199.846H235.892c-2.21,0-3.999,1.788-3.999,3.998s1.789,3.998,3.999,3.998h103.953    c2.21,0,3.998-1.788,3.998-3.998S342.055,199.846,339.845,199.846z" fill="#933EC5"/>
	</g>
</g>
<g>
	<g>
		<path d="M339.845,223.835H235.892c-2.21,0-3.999,1.788-3.999,3.998c0,2.21,1.789,3.998,3.999,3.998h103.953    c2.21,0,3.998-1.788,3.998-3.998C343.843,225.623,342.055,223.835,339.845,223.835z" fill="#933EC5"/>
	</g>
</g>
<g>
	<g>
		<path d="M251.885,247.825h-15.993c-2.21,0-3.999,1.788-3.999,3.998s1.789,3.998,3.999,3.998h15.993    c2.21,0,3.998-1.788,3.998-3.998S254.095,247.825,251.885,247.825z" fill="#933EC5"/>
	</g>
</g>
<g>
	<g>
		<path d="M212.278,223.835H100.329c-2.21,0-3.998,1.788-3.998,3.998c0,2.21,1.788,3.998,3.998,3.998h111.949    c2.21,0,3.998-1.788,3.998-3.998C216.276,225.623,214.488,223.835,212.278,223.835z" fill="#933EC5"/>
	</g>
</g>
<g>
	<g>
		<path d="M196.285,319.791h-95.956c-2.21,0-3.998,1.788-3.998,3.998c0,2.21,1.788,3.998,3.998,3.998h95.956    c2.21,0,3.998-1.788,3.998-3.998C200.283,321.579,198.495,319.791,196.285,319.791z" fill="#933EC5"/>
	</g>
</g>
<g>
	<g>
		<path d="M204.281,343.781H100.329c-2.21,0-3.998,1.788-3.998,3.998c0,2.21,1.788,3.998,3.998,3.998h103.952    c2.21,0,3.998-1.788,3.998-3.998C208.279,345.569,206.491,343.781,204.281,343.781z" fill="#933EC5"/>
	</g>
</g>
<g>
	<g>
		<path d="M212.278,367.77H100.329c-2.21,0-3.998,1.788-3.998,3.998c0,2.21,1.788,3.998,3.998,3.998h111.949    c2.21,0,3.998-1.788,3.998-3.998C216.276,369.558,214.488,367.77,212.278,367.77z" fill="#933EC5"/>
	</g>
</g>
<g>
	<g>
		<path d="M212.278,247.825H100.329c-2.21,0-3.998,1.788-3.998,3.998s1.788,3.998,3.998,3.998h111.949    c2.21,0,3.998-1.788,3.998-3.998S214.488,247.825,212.278,247.825z" fill="#933EC5"/>
	</g>
</g>
<g>
	<g>
		<path d="M204.281,271.813H100.329c-2.21,0-3.998,1.789-3.998,3.999c0,2.21,1.788,3.998,3.998,3.998h103.952    c2.21,0,3.998-1.788,3.998-3.998C208.279,273.602,206.491,271.813,204.281,271.813z" fill="#933EC5"/>
	</g>
</g>
<g>
	<g>
		<path d="M196.285,295.802h-95.956c-2.21,0-3.998,1.788-3.998,3.999c0,2.209,1.788,3.998,3.998,3.998h95.956    c2.21,0,3.998-1.789,3.998-3.998C200.283,297.59,198.495,295.802,196.285,295.802z" fill="#933EC5"/>
	</g>
</g>
<g>
	<g>
		<path d="M475.782,127.879H363.834c-2.211,0-3.999,1.788-3.999,3.998c0,2.21,1.788,3.998,3.999,3.998h111.948    c2.21,0,3.998-1.788,3.998-3.998C479.78,129.667,477.992,127.879,475.782,127.879z" fill="#933EC5"/>
	</g>
</g>
<g>
	<g>
		<path d="M475.782,151.868H363.834c-2.211,0-3.999,1.788-3.999,3.998c0,2.21,1.788,3.998,3.999,3.998h111.948    c2.21,0,3.998-1.788,3.998-3.998C479.78,153.656,477.992,151.868,475.782,151.868z" fill="#933EC5"/>
	</g>
</g>
<g>
	<g>
		<path d="M435.801,175.857h-71.967c-2.211,0-3.999,1.789-3.999,3.999c0,2.21,1.788,3.998,3.999,3.998h71.967    c2.21,0,3.998-1.788,3.998-3.998C439.799,177.646,438.011,175.857,435.801,175.857z" fill="#933EC5"/>
	</g>
</g>
<g>
	<g>
		<path d="M411.812,199.846h-47.978c-2.211,0-3.999,1.788-3.999,3.998s1.788,3.998,3.999,3.998h47.978    c2.21,0,3.998-1.788,3.998-3.998S414.022,199.846,411.812,199.846z" fill="#933EC5"/>
	</g>
</g>
<g>
	<g>
		<path d="M371.83,223.835h-7.996c-2.211,0-3.999,1.788-3.999,3.998c0,2.21,1.788,3.998,3.999,3.998h7.996    c2.21,0,3.998-1.788,3.998-3.998C375.828,225.623,374.04,223.835,371.83,223.835z" fill="#933EC5"/>
	</g>
</g>
<g>
</g>
<g>
</g>
<g>
</g>
<g>
</g>
<g>
</g>
<g>
</g>
<g>
</g>
<g>
</g>
<g>
</g>
<g>
</g>
<g>
</g>
<g>
</g>
<g>
</g>
<g>
</g>
<g>
</g>
</svg>
