<?xml version="1.0" standalone="no"?>
<!DOCTYPE svg PUBLIC "-//W3C//DTD SVG 20010904//EN"
 "http://www.w3.org/TR/2001/REC-SVG-20010904/DTD/svg10.dtd">
<svg version="1.0" xmlns="http://www.w3.org/2000/svg"
 width="500.000000pt" height="500.000000pt" viewBox="0 0 500.000000 500.000000"
 preserveAspectRatio="xMidYMid meet">
<metadata>
Created by potrace 1.15, written by Peter Selinger 2001-2017
</metadata>
<g transform="translate(0.000000,500.000000) scale(0.100000,-0.100000)"
fill="#000000" stroke="none">
<path d="M700 3015 l0 -36 22 21 c12 11 32 20 45 20 23 0 23 -1 8 -30 -8 -16
-29 -40 -45 -52 l-30 -22 0 -337 c0 -373 5 -410 69 -510 128 -202 357 -290
584 -224 82 24 168 83 201 139 15 26 38 51 51 56 28 11 78 110 94 188 7 32 11
176 11 367 l0 314 -36 17 c-32 15 -74 64 -74 87 0 18 44 4 72 -23 16 -16 31
-30 34 -30 2 0 4 20 4 45 l0 45 -505 0 -505 0 0 -35z m505 -420 c33 -52 68
-105 77 -117 17 -23 18 -22 18 45 0 60 -2 67 -20 67 -17 0 -20 7 -20 50 l0 50
110 0 110 0 0 -50 c0 -43 -3 -50 -20 -50 -19 0 -20 -7 -20 -185 l0 -185 -87 0
-88 0 -83 130 c-46 72 -86 130 -88 130 -2 0 -4 -36 -4 -80 0 -73 2 -80 20 -80
17 0 20 -7 20 -50 l0 -50 -105 0 -105 0 0 50 c0 38 4 50 15 50 13 0 15 22 15
135 0 113 -2 135 -15 135 -11 0 -15 12 -15 50 l0 50 113 -1 112 0 60 -94z"/>
<path d="M2690 3029 c-85 -26 -120 -84 -120 -197 0 -50 6 -79 23 -112 32 -64
74 -85 167 -85 125 0 179 50 188 175 7 103 -22 171 -90 206 -36 19 -125 26
-168 13z m95 -194 c0 -98 -2 -110 -18 -113 -37 -7 -47 16 -47 112 0 97 9 119
45 114 19 -3 20 -10 20 -113z"/>
<path d="M2080 2990 c0 -29 4 -40 15 -40 12 0 15 -19 15 -115 0 -96 -3 -115
-15 -115 -11 0 -15 -11 -15 -40 l0 -40 90 0 90 0 0 40 c0 29 -4 40 -15 40 -12
0 -15 15 -15 73 l0 72 73 -112 72 -112 73 0 72 -1 0 155 c0 131 2 155 15 155
11 0 15 11 15 40 l0 40 -85 0 -85 0 0 -36 c0 -22 6 -41 16 -48 11 -9 14 -26
12 -66 l-3 -55 -67 103 -67 102 -96 0 -95 0 0 -40z"/>
<path d="M2978 2991 c-3 -32 0 -41 14 -44 16 -5 18 -18 18 -115 0 -95 -2 -111
-16 -114 -12 -2 -17 -14 -18 -41 l-1 -38 145 3 c133 3 148 5 178 26 49 36 66
76 66 162 1 97 -22 146 -84 178 -39 19 -59 22 -171 22 l-127 0 -4 -39z m220
-49 c9 -6 12 -36 10 -113 l-3 -104 -30 0 -30 0 -3 99 c-1 55 0 106 2 113 6 15
34 17 54 5z"/>
<path d="M3390 2990 c0 -29 4 -40 15 -40 12 0 15 -19 15 -115 0 -96 -3 -115
-15 -115 -11 0 -15 -11 -15 -40 l0 -40 175 0 175 0 0 80 0 80 -55 0 -55 0 0
-40 c0 -39 -1 -40 -35 -40 -35 0 -35 0 -35 45 0 42 2 45 26 45 22 0 25 4 22
28 -2 19 -9 28 -25 30 -19 3 -23 10 -23 43 0 38 1 39 35 39 33 0 35 -2 35 -35
l0 -35 55 0 55 0 0 75 0 75 -175 0 -175 0 0 -40z"/>
<path d="M2590 2549 c-85 -26 -120 -84 -120 -197 0 -50 6 -79 23 -112 32 -64
74 -85 167 -85 125 0 179 50 188 175 7 103 -22 171 -90 206 -36 19 -125 26
-168 13z m95 -194 c0 -98 -2 -110 -18 -113 -37 -7 -47 16 -47 112 0 97 9 119
45 114 19 -3 20 -10 20 -113z"/>
<path d="M4071 2550 c-75 -18 -101 -48 -101 -120 0 -51 30 -85 110 -124 35
-17 63 -35 62 -41 -2 -17 -45 -18 -58 0 -9 12 -24 15 -61 13 l-48 -3 -3 -48
c-3 -43 -1 -48 25 -58 15 -7 69 -12 118 -13 74 -1 96 3 125 20 45 26 66 82 51
135 -14 46 -36 65 -107 94 -32 13 -60 29 -62 34 -6 17 29 25 49 13 10 -7 41
-12 69 -12 l50 0 0 39 c0 47 -10 55 -78 70 -59 12 -91 13 -141 1z"/>
<path d="M2090 2510 c0 -29 4 -40 15 -40 12 0 15 -19 15 -115 0 -96 -3 -115
-15 -115 -11 0 -15 -11 -15 -40 l0 -40 111 0 110 0 -3 38 c-2 30 -7 38 -25 40
-19 3 -23 10 -23 36 0 33 1 33 56 40 89 10 118 32 129 97 4 23 1 50 -9 73 -23
55 -59 66 -216 66 l-130 0 0 -40z"/>
<path d="M2870 2510 c0 -29 4 -40 15 -40 12 0 15 -19 15 -115 0 -96 -3 -115
-15 -115 -11 0 -15 -11 -15 -40 l0 -40 100 0 100 0 0 40 c0 29 -4 40 -15 40
-12 0 -15 19 -15 115 0 96 3 115 15 115 11 0 15 11 15 40 l0 40 -100 0 -100 0
0 -40z"/>
<path d="M3090 2510 c0 -29 4 -40 15 -40 12 0 15 -19 15 -115 0 -96 -3 -115
-15 -115 -11 0 -15 -11 -15 -40 l0 -40 90 0 90 0 0 40 c0 29 -4 40 -15 40 -12
0 -15 15 -15 73 l0 72 73 -112 72 -112 73 0 72 -1 0 155 c0 131 2 155 15 155
11 0 15 11 15 40 l0 40 -85 0 -85 0 0 -36 c0 -22 6 -41 16 -48 11 -9 14 -26
12 -66 l-3 -55 -67 103 -67 102 -96 0 -95 0 0 -40z"/>
<path d="M3570 2490 l0 -60 45 0 c38 0 45 3 45 20 0 11 7 20 15 20 12 0 15
-19 15 -115 0 -96 -3 -115 -15 -115 -11 0 -15 -11 -15 -40 l0 -40 105 0 105 0
0 40 c0 33 -3 40 -20 40 -19 0 -20 7 -20 115 0 108 1 115 20 115 13 0 20 -7
20 -20 0 -17 7 -20 40 -20 l40 0 0 60 0 60 -190 0 -190 0 0 -60z"/>
</g>
</svg>
